<svg id="Layer_1" data-name="Layer 1" xmlns="http://www.w3.org/2000/svg" viewBox="0 0 403.84 111.58"><defs><style>.cls-1{fill:#002238;}.cls-2{fill:#be9861;}</style></defs><g id="Ontra_Horizontal_LightBkg"><path class="cls-1" d="M155.78,21.72a34.07,34.07,0,1,0,34.07,34.07A34.07,34.07,0,0,0,155.78,21.72Zm0,52.28C146.53,74,139,65.85,139,55.79s7.5-18.21,16.75-18.21,16.75,8.15,16.75,18.21S165,74,155.78,74Z"/><path class="cls-1" d="M231.2,21.87c-6.94,0-14.66,3-18.58,9.68v-8H195.73V88h17.41v-37c0-7.46,4.45-13.35,12-13.35,8.37,0,11.91,5.63,11.91,12.82V88h17.4V47.39C254.49,33.25,247.16,21.87,231.2,21.87Z"/><path class="cls-1" d="M287.73,7.28H272v6.08c0,5.76-3.14,10.21-9.95,10.21h-3.27V39h11.34V70.2c0,15.2,12.48,23,30.54,17.08v-15c-14.14,3.15-12.88-2.55-12.88-13.2V39h12.88V23.57h-13Z"/><path class="cls-1" d="M327.29,33.12V23.57H310.41V88h17.41V58.51c0-13.87,8.89-18.19,17.79-18.19V23.05C340.12,23.05,331.22,24.62,327.29,33.12Z"/><path class="cls-1" d="M376.8,21.25c-16.29,0-26,8-26.44,24.21h16c.39-7.12,4.6-10.12,10.53-10.12,7.38,0,9.79,3.82,9.79,8.43,0,2.24-1.18,4.08-4.87,4.61l-15.93,2.37c-10.8,1.58-19.36,8-19.36,19.62,0,10.14,8.43,19.49,22.25,19.49,12,0,19.1-9.62,19.1-9.62V88h15.93V47C403.84,34,397.34,21.25,376.8,21.25Zm9.92,40.56c0,11.45-6.84,15-14.22,15-5.66,0-8.43-3.69-8.43-7.51,0-5,3.56-7.5,8-8.16l14.61-2.24Z"/><polygon class="cls-1" points="44.59 0 0 29.29 0 45.25 44.59 15.96 89.18 45.25 89.18 29.29 44.59 0"/><polygon class="cls-1" points="44.61 31.89 0 61.16 0 77.13 44.59 47.84 89.18 77.1 89.18 61.16 44.61 31.89"/><polygon class="cls-2" points="56.72 71.72 44.61 63.76 8.19 87.66 20.32 95.65 56.72 71.72"/><polygon class="cls-2" points="68.87 79.7 32.46 103.6 44.61 111.58 81.01 87.67 68.87 79.7"/></g></svg>